<?xml version="1.0" encoding="UTF-8"?>
<svg width="549px" height="582px" viewBox="0 0 549 582" version="1.1" xmlns="http://www.w3.org/2000/svg" xmlns:xlink="http://www.w3.org/1999/xlink">
    <!-- Generator: Sketch 42 (36781) - http://www.bohemiancoding.com/sketch -->
    <title>dubai</title>
    <desc>Created with Sketch.</desc>
    <defs>
        <polygon id="path-1" points="266 146.297178 283.5 146.297178 283.5 56.5 292 64.5 292 103.815415 301 103.815415 301 134.101036 301 173 266 173"></polygon>
        <mask id="mask-2" maskContentUnits="userSpaceOnUse" maskUnits="objectBoundingBox" x="0" y="0" width="35" height="116.5" fill="white">
            <use xlink:href="#path-1"></use>
        </mask>
        <rect id="path-3" x="266" y="170" width="35" height="96"></rect>
        <mask id="mask-4" maskContentUnits="userSpaceOnUse" maskUnits="objectBoundingBox" x="0" y="0" width="35" height="96" fill="white">
            <use xlink:href="#path-3"></use>
        </mask>
        <polygon id="path-5" points="237.664141 212.767044 269.368687 204 269.368687 248.195538 301.073232 254.19531 301.073232 303.982875 323.775253 303.982875 323.775253 403.982875 350 403.982875 350 496.982875 350 580.982875 301.073232 580.982875 195 580.982875 195 444.482875 218.484848 444.482875 218.484848 353.482875 237.664141 353.482875"></polygon>
        <mask id="mask-6" maskContentUnits="userSpaceOnUse" maskUnits="objectBoundingBox" x="0" y="0" width="155" height="376.982875" fill="white">
            <use xlink:href="#path-5"></use>
        </mask>
    </defs>
    <g id="Page-1" stroke="none" stroke-width="1" fill="none" fill-rule="evenodd">
        <g id="cities-copy" transform="translate(-880.000000, -440.000000)">
            <g id="dubai" transform="translate(880.000000, 441.000000)">
                <circle id="Oval" fill="#EAECA7" cx="274.5" cy="302.5" r="274.5"></circle>
                <use id="Rectangle-4" stroke="#595959" mask="url(#mask-2)" stroke-width="6" fill="#BCCDD5" xlink:href="#path-1"></use>
                <path d="M284.5,0.5 L284.5,145.5" id="Line" stroke="#646464" stroke-width="3" stroke-linecap="square"></path>
                <use id="Rectangle-4" stroke="#595959" mask="url(#mask-4)" stroke-width="6" fill="#BCCDD5" xlink:href="#path-3"></use>
                <use id="Rectangle-3" stroke="#646464" mask="url(#mask-6)" stroke-width="10" fill="#B3C6D0" xlink:href="#path-5"></use>
                <polygon id="Rectangle-29" fill-opacity="0.8" fill="#758AAD" points="255 213 264.5 210.5 264.5 252 290 257 290 576.5 255 576.5"></polygon>
                <polygon id="Rectangle-29" fill-opacity="0.8" fill="#758AAD" points="269 173 288.5 173 288.5 252 269 248.5"></polygon>
                <circle id="Oval-5" fill="#FF9E11" cx="150.5" cy="159.5" r="44.5"></circle>
            </g>
        </g>
    </g>
</svg>